<svg xmlns="http://www.w3.org/2000/svg" style="display:none;">
  
  <!-- 1. خانه -->
  <symbol id="icon-home" viewBox="0 0 24 24" fill="none" stroke="#55FFFF" stroke-width="2" stroke-linecap="round" stroke-linejoin="round">
    <path d="M3 12L12 3l9 9" />
    <path d="M5 10v10h5v-6h4v6h5V10" />
  </symbol>

  <!-- 2. وبلاگ -->
  <symbol id="icon-blog" viewBox="0 0 24 24" fill="none" stroke="#55FFFF" stroke-width="2" stroke-linecap="round" stroke-linejoin="round">
    <path d="M12 4v16" />
    <path d="M4 7c0-1.1.9-2 2-2h3l3 2 3-2h3a2 2 0 012 2v10a2 2 0 01-2 2h-3l-3-2-3 2H6a2 2 0 01-2-2V7z" />
  </symbol>

  <!-- 3. درباره ما -->
  <symbol id="icon-about" viewBox="0 0 24 24" fill="none" stroke="#55FFFF" stroke-width="2" stroke-linecap="round" stroke-linejoin="round">
    <circle cx="12" cy="12" r="9" />
    <path d="M9.5 9.5a3 3 0 014.5 2.5c0 1.5-1.5 2.5-1.5 3.5" />
    <line x1="12" y1="18" x2="12.01" y2="18" />
  </symbol>

  <!-- 4. گیم مودها -->
  <symbol id="icon-gamemodes" viewBox="0 0 24 24" fill="none" stroke="#55FFFF" stroke-width="2" stroke-linecap="round" stroke-linejoin="round">
    <rect x="3" y="6" width="18" height="13" rx="3" />
    <line x1="7" y1="10" x2="7" y2="14" />
    <line x1="5" y1="12" x2="9" y2="12" />
    <circle cx="15" cy="12" r="1.5" />
    <circle cx="18.5" cy="10" r="1.5" />
  </symbol>

  <!-- 5. تماس با ما -->
  <symbol id="icon-contact" viewBox="0 0 24 24" fill="none" stroke="#55FFFF" stroke-width="2" stroke-linecap="round" stroke-linejoin="round">
    <rect x="3" y="5" width="18" height="14" rx="1.5" />
    <polyline points="4 6 12 13 20 6" />
  </symbol>

  <!-- 6. قوانین -->
  <symbol id="icon-rules" viewBox="0 0 24 24" fill="none" stroke="#55FFFF" stroke-width="2" stroke-linecap="round" stroke-linejoin="round">
    <path d="M12 2L4 5v6c0 5.3 3.6 10.2 8 11 4.4-.8 8-5.7 8-11V5l-8-3z" />
    <path d="M9 12l2 2 4-4" />
  </symbol>

  <!-- 7. ورود -->
  <symbol id="icon-login" viewBox="0 0 24 24" fill="none" stroke="#55FFFF" stroke-width="2" stroke-linecap="round" stroke-linejoin="round">
    <path d="M5 21h12a2 2 0 002-2V5a2 2 0 00-2-2H5" />
    <polyline points="15 17 20 12 15 7" />
    <line x1="20" y1="12" x2="8" y2="12" />
  </symbol>

  <!-- 8. ثبت‌نام -->
  <symbol id="icon-register" viewBox="0 0 24 24" fill="none" stroke="#55FFFF" stroke-width="2" stroke-linecap="round" stroke-linejoin="round">
    <circle cx="10" cy="8" r="4" />
    <path d="M2 21v-1a7 7 0 018-4.5" />
    <line x1="18" y1="10" x2="18" y2="18" />
    <line x1="14" y1="14" x2="22" y2="14" />
  </symbol>

  <!-- 9. الماس -->
  <symbol id="icon-diamond" viewBox="0 0 24 24" fill="none" stroke="#55FFFF" stroke-width="2" stroke-linecap="round" stroke-linejoin="round">
    <polygon points="12 2 22 12 12 22 2 12" />
  </symbol>

  <!-- 10. سرور -->
  <symbol id="icon-server" viewBox="0 0 24 24" fill="none" stroke="#55FFFF" stroke-width="2" stroke-linecap="round" stroke-linejoin="round">
    <rect x="3" y="4" width="18" height="12" rx="2" />
    <line x1="8" y1="19" x2="16" y2="19" />
    <line x1="12" y1="16" x2="12" y2="19" />
    <circle cx="8" cy="8" r="1" />
    <circle cx="12" cy="8" r="1" />
    <circle cx="16" cy="8" r="1" />
  </symbol>

  <!-- 11. بازیکنان -->
  <symbol id="icon-players" viewBox="0 0 24 24" fill="none" stroke="#55FFFF" stroke-width="2" stroke-linecap="round" stroke-linejoin="round">
    <circle cx="8" cy="7" r="3.5" />
    <path d="M2 20v-1a6 6 0 016-4" />
    <circle cx="17" cy="6" r="3.5" />
    <path d="M14 20v-1a6 6 0 016-4" />
  </symbol>

  <!-- 12. کپی -->
  <symbol id="icon-copy" viewBox="0 0 24 24" fill="none" stroke="#55FFFF" stroke-width="2" stroke-linecap="round" stroke-linejoin="round">
    <rect x="7" y="7" width="13" height="14" rx="1.5" />
    <path d="M4 17V5a1.5 1.5 0 011.5-1.5h11" />
  </symbol>

  <!-- 13. کلنگ -->
  <symbol id="icon-pickaxe" viewBox="0 0 24 24" fill="none" stroke="#55FFFF" stroke-width="2" stroke-linecap="round" stroke-linejoin="round">
    <path d="M15 9l-5 5" />
    <path d="M3 21l6-6 1 1 6-6-3-4z" />
  </symbol>

  <!-- 14. جزیره -->
  <symbol id="icon-island" viewBox="0 0 24 24" fill="none" stroke="#55FFFF" stroke-width="2" stroke-linecap="round" stroke-linejoin="round">
    <path d="M6 16c-3-1-4-5-1-7s5-1 6 3 3 7 7 4 2-6-2-8" />
    <line x1="8" y1="20" x2="16" y2="20" />
    <line x1="12" y1="16" x2="12" y2="22" />
  </symbol>

  <!-- 15. تخت -->
  <symbol id="icon-bed" viewBox="0 0 24 24" fill="none" stroke="#55FFFF" stroke-width="2" stroke-linecap="round" stroke-linejoin="round">
    <rect x="3" y="6" width="18" height="12" rx="2" />
    <line x1="9" y1="6" x2="9" y2="18" />
    <line x1="15" y1="6" x2="15" y2="18" />
  </symbol>

  <!-- 16. مداد -->
  <symbol id="icon-pencil" viewBox="0 0 24 24" fill="none" stroke="#55FFFF" stroke-width="2" stroke-linecap="round" stroke-linejoin="round">
    <path d="M13 3l7 7-10 10H3v-7z" />
    <line x1="16" y1="3" x2="20" y2="7" />
  </symbol>

  <!-- 17. پرش -->
  <symbol id="icon-jump" viewBox="0 0 24 24" fill="none" stroke="#55FFFF" stroke-width="2" stroke-linecap="round" stroke-linejoin="round">
    <line x1="12" y1="20" x2="12" y2="4" />
    <polyline points="6 9 12 3 18 9" />
  </symbol>

  <!-- 18. بلوک -->
  <symbol id="icon-block" viewBox="0 0 24 24" fill="none" stroke="#55FFFF" stroke-width="2" stroke-linecap="round" stroke-linejoin="round">
    <rect x="4" y="4" width="16" height="16" rx="2" />
  </symbol>

  <!-- 19. دیسکورد -->
  <symbol id="icon-discord" viewBox="0 0 24 24" fill="none" stroke="#55FFFF" stroke-width="2" stroke-linecap="round" stroke-linejoin="round">
    <path d="M9 7c-3 1-4 5-2 8" />
    <path d="M15 7c3 1 4 5 2 8" />
    <circle cx="8" cy="17" r="2" />
    <circle cx="16" cy="17" r="2" />
  </symbol>

  <!-- 20. بله -->
  <symbol id="icon-bale" viewBox="0 0 24 24" fill="none" stroke="#55FFFF" stroke-width="2" stroke-linecap="round" stroke-linejoin="round">
    <circle cx="12" cy="12" r="9" />
    <path d="M9 10h.01M15 10h.01M9.5 14.5c.8 1 2 1.5 3.5 1.5s2.7-.5 3.5-1.5" />
  </symbol>

  <!-- 21. جستجو -->
  <symbol id="icon-search" viewBox="0 0 24 24" fill="none" stroke="#55FFFF" stroke-width="2" stroke-linecap="round" stroke-linejoin="round">
    <circle cx="10" cy="10" r="7" />
    <line x1="15" y1="15" x2="21" y2="21" />
  </symbol>

  <!-- 22. ستاره -->
  <symbol id="icon-star" viewBox="0 0 24 24" fill="none" stroke="#55FFFF" stroke-width="2" stroke-linecap="round" stroke-linejoin="round">
    <polygon points="12 2 15 8.5 22 9.5 17 14.5 18.5 21 12 17.5 5.5 21 7 14.5 2 9.5 9 8.5" />
  </symbol>

  <!-- 23. تنظیمات -->
  <symbol id="icon-settings" viewBox="0 0 24 24" fill="none" stroke="#55FFFF" stroke-width="2" stroke-linecap="round" stroke-linejoin="round">
    <circle cx="12" cy="12" r="3" />
    <path d="M13.8 3.2l.7 1.5a5.5 5.5 0 002.8 2.8l1.5.7-.3 1.7a5.5 5.5 0 000 4l.3 1.7-1.5.7a5.5 5.5 0 00-2.8 2.8l-.7 1.5h-1.7a5.5 5.5 0 00-4 0H7l-.7-1.5a5.5 5.5 0 00-2.8-2.8l-1.5-.7.3-1.7a5.5 5.5 0 000-4l-.3-1.7 1.5-.7a5.5 5.5 0 002.8-2.8L7 3.2h1.7z" />
  </symbol>

  <!-- 24. هشدار -->
  <symbol id="icon-alert" viewBox="0 0 24 24" fill="none" stroke="#55FFFF" stroke-width="2" stroke-linecap="round" stroke-linejoin="round">
    <polygon points="12 3 22 21 2 21" />
    <line x1="12" y1="10" x2="12" y2="14" />
    <circle cx="12" cy="17.5" r="1" fill="#55FFFF" />
  </symbol>

  <!-- 25. بستن -->
  <symbol id="icon-close" viewBox="0 0 24 24" fill="none" stroke="#55FFFF" stroke-width="2" stroke-linecap="round" stroke-linejoin="round">
    <line x1="6" y1="6" x2="18" y2="18" />
    <line x1="18" y1="6" x2="6" y2="18" />
  </symbol>

</svg>
